<?xml version="1.0" encoding="UTF-8" standalone="no"?>
<svg
   xmlns:dc="http://purl.org/dc/elements/1.1/"
   xmlns:cc="http://creativecommons.org/ns#"
   xmlns:rdf="http://www.w3.org/1999/02/22-rdf-syntax-ns#"
   xmlns:svg="http://www.w3.org/2000/svg"
   xmlns="http://www.w3.org/2000/svg"
   xmlns:xlink="http://www.w3.org/1999/xlink"
   xmlns:sodipodi="http://sodipodi.sourceforge.net/DTD/sodipodi-0.dtd"
   xmlns:inkscape="http://www.inkscape.org/namespaces/inkscape"
   width="600"
   height="440"
   viewBox="0 0 600 440"
   id="svg2"
   version="1.1"
   inkscape:version="0.48.3.1 r9886"
   sodipodi:docname="calibracao.svg">
  <metadata
     id="metadata243">
    <rdf:RDF>
      <cc:Work
         rdf:about="">
        <dc:format>image/svg+xml</dc:format>
        <dc:type
           rdf:resource="http://purl.org/dc/dcmitype/StillImage" />
      </cc:Work>
    </rdf:RDF>
  </metadata>
  <defs
     id="defs241" />
  <sodipodi:namedview
     pagecolor="#ffffff"
     bordercolor="#666666"
     borderopacity="1"
     objecttolerance="10"
     gridtolerance="10"
     guidetolerance="10"
     inkscape:pageopacity="0"
     inkscape:pageshadow="2"
     inkscape:window-width="1920"
     inkscape:window-height="1018"
     id="namedview239"
     showgrid="false"
     inkscape:zoom="1.5"
     inkscape:cx="300"
     inkscape:cy="220"
     inkscape:window-x="-8"
     inkscape:window-y="-8"
     inkscape:window-maximized="1"
     inkscape:current-layer="svg2" />
  <title
     id="title4">Gnuplot</title>
  <desc
     id="desc6">Produced by GNUPLOT 4.6 patchlevel 3 </desc>
  <g
     id="gnuplot_canvas">
    <rect
       x="0"
       y="0"
       width="600"
       height="440"
       fill="none"
       id="rect9" />
    <defs
       id="defs11">
      <circle
         id="gpDot"
         r="0.5"
         stroke-width="0.5" />
      <path
         id="gpPt0"
         stroke-width="0.244"
         stroke="currentColor"
         d="M-1,0 h2 M0,-1 v2" />
      <path
         id="gpPt1"
         stroke-width="0.244"
         stroke="currentColor"
         d="M-1,-1 L1,1 M1,-1 L-1,1" />
      <path
         id="gpPt2"
         stroke-width="0.244"
         stroke="currentColor"
         d="M-1,0 L1,0 M0,-1 L0,1 M-1,-1 L1,1 M-1,1 L1,-1" />
      <rect
         id="gpPt3"
         stroke-width="0.244"
         stroke="currentColor"
         x="-1"
         y="-1"
         width="2"
         height="2" />
      <rect
         id="gpPt4"
         stroke-width="0.244"
         stroke="currentColor"
         fill="currentColor"
         x="-1"
         y="-1"
         width="2"
         height="2" />
      <circle
         id="gpPt5"
         stroke-width="0.244"
         stroke="currentColor"
         cx="0"
         cy="0"
         r="1" />
      <use
         xlink:href="#gpPt5"
         id="gpPt6"
         fill="currentColor"
         stroke="none" />
      <path
         id="gpPt7"
         stroke-width="0.244"
         stroke="currentColor"
         d="M0,-1.33 L-1.33,0.67 L1.33,0.67 z" />
      <use
         xlink:href="#gpPt7"
         id="gpPt8"
         fill="currentColor"
         stroke="none" />
      <use
         xlink:href="#gpPt7"
         id="gpPt9"
         stroke="currentColor"
         transform="rotate(180)" />
      <use
         xlink:href="#gpPt9"
         id="gpPt10"
         fill="currentColor"
         stroke="none" />
      <use
         xlink:href="#gpPt3"
         id="gpPt11"
         stroke="currentColor"
         transform="rotate(45)" />
      <use
         xlink:href="#gpPt11"
         id="gpPt12"
         fill="currentColor"
         stroke="none" />
    </defs>
    <g
       style="fill:none; color:white; stroke:currentColor; stroke-width:1.00; stroke-linecap:butt; stroke-linejoin:miter"
       id="g27" />
    <g
       style="fill:none; color:black; stroke:currentColor; stroke-width:1.00; stroke-linecap:butt; stroke-linejoin:miter"
       id="g29">
      <path
         stroke="black"
         d="M65.8,387.6 L74.0,387.6 M577.1,387.6 L568.9,387.6  h0.01"
         id="path31" />
      <g
         transform="translate(58.2,391.7)"
         style="stroke:none; fill:black; font-family:CMR10,CMEX10; font-size:11.00pt; text-anchor:end"
         id="g33">
        <text
           id="text35">
          <tspan
             id="tspan37"> 0</tspan>
        </text>
      </g>
      <path
         stroke="black"
         d="M65.8,325.6 L74.0,325.6 M577.1,325.6 L568.9,325.6  h0.01"
         id="path39" />
      <g
         transform="translate(58.2,329.7)"
         style="stroke:none; fill:black; font-family:CMR10,CMEX10; font-size:11.00pt; text-anchor:end"
         id="g41">
        <text
           id="text43">
          <tspan
             id="tspan45"> 20</tspan>
        </text>
      </g>
      <path
         stroke="black"
         d="M65.8,263.5 L74.0,263.5 M577.1,263.5 L568.9,263.5  h0.01"
         id="path47" />
      <g
         transform="translate(58.2,267.6)"
         style="stroke:none; fill:black; font-family:CMR10,CMEX10; font-size:11.00pt; text-anchor:end"
         id="g49">
        <text
           id="text51">
          <tspan
             id="tspan53"> 40</tspan>
        </text>
      </g>
      <path
         stroke="black"
         d="M65.8,201.5 L74.0,201.5 M577.1,201.5 L568.9,201.5  h0.01"
         id="path55" />
      <g
         transform="translate(58.2,205.6)"
         style="stroke:none; fill:black; font-family:CMR10,CMEX10; font-size:11.00pt; text-anchor:end"
         id="g57">
        <text
           id="text59">
          <tspan
             id="tspan61"> 60</tspan>
        </text>
      </g>
      <path
         stroke="black"
         d="M65.8,139.4 L74.0,139.4 M577.1,139.4 L568.9,139.4  h0.01"
         id="path63" />
      <g
         transform="translate(58.2,143.5)"
         style="stroke:none; fill:black; font-family:CMR10,CMEX10; font-size:11.00pt; text-anchor:end"
         id="g65">
        <text
           id="text67">
          <tspan
             id="tspan69"> 80</tspan>
        </text>
      </g>
      <path
         stroke="black"
         d="M65.8,77.4 L74.0,77.4 M577.1,77.4 L568.9,77.4  h0.01"
         id="path71" />
      <g
         transform="translate(58.2,81.5)"
         style="stroke:none; fill:black; font-family:CMR10,CMEX10; font-size:11.00pt; text-anchor:end"
         id="g73">
        <text
           id="text75">
          <tspan
             id="tspan77"> 100</tspan>
        </text>
      </g>
      <path
         stroke="black"
         d="M65.8,15.3 L74.0,15.3 M577.1,15.3 L568.9,15.3  h0.01"
         id="path79" />
      <g
         transform="translate(58.2,19.4)"
         style="stroke:none; fill:black; font-family:CMR10,CMEX10; font-size:11.00pt; text-anchor:end"
         id="g81">
        <text
           id="text83">
          <tspan
             id="tspan85"> 120</tspan>
        </text>
      </g>
      <path
         stroke="black"
         d="M65.8,387.6 L65.8,379.4 M65.8,15.3 L65.8,23.5  h0.01"
         id="path87" />
      <g
         transform="translate(65.8,408.1)"
         style="stroke:none; fill:black; font-family:CMR10,CMEX10; font-size:11.00pt; text-anchor:middle"
         id="g89">
        <text
           id="text91">
          <tspan
             id="tspan93"> 0</tspan>
        </text>
      </g>
      <path
         stroke="black"
         d="M121.4,387.6 L121.4,379.4 M121.4,15.3 L121.4,23.5  h0.01"
         id="path95" />
      <g
         transform="translate(121.4,408.1)"
         style="stroke:none; fill:black; font-family:CMR10,CMEX10; font-size:11.00pt; text-anchor:middle"
         id="g97">
        <text
           id="text99">
          <tspan
             id="tspan101"> 5</tspan>
        </text>
      </g>
      <path
         stroke="black"
         d="M177.0,387.6 L177.0,379.4 M177.0,15.3 L177.0,23.5  h0.01"
         id="path103" />
      <g
         transform="translate(177.0,408.1)"
         style="stroke:none; fill:black; font-family:CMR10,CMEX10; font-size:11.00pt; text-anchor:middle"
         id="g105">
        <text
           id="text107">
          <tspan
             id="tspan109"> 10</tspan>
        </text>
      </g>
      <path
         stroke="black"
         d="M232.5,387.6 L232.5,379.4 M232.5,15.3 L232.5,23.5  h0.01"
         id="path111" />
      <g
         transform="translate(232.5,408.1)"
         style="stroke:none; fill:black; font-family:CMR10,CMEX10; font-size:11.00pt; text-anchor:middle"
         id="g113">
        <text
           id="text115">
          <tspan
             id="tspan117"> 15</tspan>
        </text>
      </g>
      <path
         stroke="black"
         d="M288.1,387.6 L288.1,379.4 M288.1,15.3 L288.1,23.5  h0.01"
         id="path119" />
      <g
         transform="translate(288.1,408.1)"
         style="stroke:none; fill:black; font-family:CMR10,CMEX10; font-size:11.00pt; text-anchor:middle"
         id="g121">
        <text
           id="text123">
          <tspan
             id="tspan125"> 20</tspan>
        </text>
      </g>
      <path
         stroke="black"
         d="M343.7,387.6 L343.7,379.4 M343.7,15.3 L343.7,23.5  h0.01"
         id="path127" />
      <g
         transform="translate(343.7,408.1)"
         style="stroke:none; fill:black; font-family:CMR10,CMEX10; font-size:11.00pt; text-anchor:middle"
         id="g129">
        <text
           id="text131">
          <tspan
             id="tspan133"> 25</tspan>
        </text>
      </g>
      <path
         stroke="black"
         d="M399.3,387.6 L399.3,379.4 M399.3,15.3 L399.3,23.5  h0.01"
         id="path135" />
      <g
         transform="translate(399.3,408.1)"
         style="stroke:none; fill:black; font-family:CMR10,CMEX10; font-size:11.00pt; text-anchor:middle"
         id="g137">
        <text
           id="text139">
          <tspan
             id="tspan141"> 30</tspan>
        </text>
      </g>
      <path
         stroke="black"
         d="M454.8,387.6 L454.8,379.4 M454.8,15.3 L454.8,23.5  h0.01"
         id="path143" />
      <g
         transform="translate(454.8,408.1)"
         style="stroke:none; fill:black; font-family:CMR10,CMEX10; font-size:11.00pt; text-anchor:middle"
         id="g145">
        <text
           id="text147">
          <tspan
             id="tspan149"> 35</tspan>
        </text>
      </g>
      <path
         stroke="black"
         d="M510.4,387.6 L510.4,379.4 M510.4,15.3 L510.4,23.5  h0.01"
         id="path151" />
      <g
         transform="translate(510.4,408.1)"
         style="stroke:none; fill:black; font-family:CMR10,CMEX10; font-size:11.00pt; text-anchor:middle"
         id="g153">
        <text
           id="text155">
          <tspan
             id="tspan157"> 40</tspan>
        </text>
      </g>
      <path
         stroke="black"
         d="M566.0,387.6 L566.0,379.4 M566.0,15.3 L566.0,23.5  h0.01"
         id="path159" />
      <g
         transform="translate(566.0,408.1)"
         style="stroke:none; fill:black; font-family:CMR10,CMEX10; font-size:11.00pt; text-anchor:middle"
         id="g161">
        <text
           id="text163">
          <tspan
             id="tspan165"> 45</tspan>
        </text>
      </g>
      <path
         stroke="black"
         d="M65.8,15.3 L65.8,387.6 L577.1,387.6 L577.1,15.3 L65.8,15.3 Z  h0.01"
         id="path167" />
      <g
         transform="translate(16.1,201.5) rotate(270)"
         style="stroke:none; fill:black; font-family:CMR10,CMEX10; font-size:11.00pt; text-anchor:middle"
         id="g169">
        <text
           id="text171"
           style="font-style:normal;font-variant:normal;font-weight:500;font-stretch:normal;font-family:CMU Serif;-inkscape-font-specification:CMU Serif Medium">
          <tspan
             id="tspan173"
             style="font-style:normal;font-variant:normal;font-weight:500;font-stretch:normal;font-family:CMU Serif;-inkscape-font-specification:CMU Serif Medium"
             dy="0 0 0 0 0 0 0 0 0 0 0 0 0 0 0 0 5 -5">Tensão de Hall VH (mV)</tspan>
        </text>
      </g>
      <g
         transform="translate(321.4,432.7)"
         style="stroke:none; fill:black; font-family:CMR10,CMEX10; font-size:11.00pt; text-anchor:middle"
         id="g175">
        <text
           id="text177"
           style="font-style:normal;font-variant:normal;font-weight:500;font-stretch:normal;font-family:CMU Serif;-inkscape-font-specification:CMU Serif Medium">
          <tspan
             id="tspan179"
             style="font-style:normal;font-variant:normal;font-weight:500;font-stretch:normal;font-family:CMU Serif;-inkscape-font-specification:CMU Serif Medium"
             dy="0 0 0 0 0 0 0 0 0 0 0 0 0 0 0 0 0 0 0 0 0 0 0 0 0 0 0 0 0 0 5 -5 0 0 0 0 -5 0 5">Campo Magnético no Solenóide BS (x10-4 T)</tspan>
        </text>
      </g>
    </g>
    <g
       id="gnuplot_plot_1">
      <title
         id="title182">gnuplot_plot_1</title>
      <g
         style="fill:none; color:white; stroke:black; stroke-width:2.00; stroke-linecap:butt; stroke-linejoin:miter"
         id="g184" />
      <g
         style="fill:none; color:red; stroke:currentColor; stroke-width:2.00; stroke-linecap:butt; stroke-linejoin:miter"
         id="g186">
        <g
           transform="translate(515.7,358.9)"
           style="stroke:none; fill:black; font-family:CMR10,CMEX10; font-size:11.00pt; text-anchor:end"
           id="g188">
          <text
             id="text190">
            <tspan
               id="tspan192">dados experimentais</tspan>
          </text>
        </g>
        <path
           stroke="rgb(255,   0,   0)"
           d="M523.3,354.8 L561.9,354.8 M523.3,350.7 L523.3,358.9 M561.9,350.7 L561.9,358.9 M99.7,359.7 L109.4,359.7    M99.7,363.8 L99.7,355.6 M109.4,363.8 L109.4,355.6 M104.5,356.6 L114.3,356.6 M104.5,360.7 L104.5,352.5    M114.3,360.7 L114.3,352.5 M114.1,353.5 L124.0,353.5 M114.1,357.6 L114.1,349.4 M124.0,357.6 L124.0,349.4    M119.0,347.3 L128.9,347.3 M119.0,351.4 L119.0,343.2 M128.9,351.4 L128.9,343.2 M128.6,341.1 L138.6,341.1    M128.6,345.2 L128.6,337.0 M138.6,345.2 L138.6,337.0 M147.9,328.7 L158.0,328.7 M147.9,332.8 L147.9,324.6    M158.0,332.8 L158.0,324.6 M181.6,300.7 L192.1,300.7 M181.6,304.8 L181.6,296.6 M192.1,304.8 L192.1,296.6    M215.2,279.0 L226.3,279.0 M215.2,283.1 L215.2,274.9 M226.3,283.1 L226.3,274.9 M292.0,220.1 L304.5,220.1    M292.0,224.2 L292.0,216.0 M304.5,224.2 L304.5,216.0 M430.6,120.8 L446.8,120.8 M430.6,124.9 L430.6,116.7    M446.8,124.9 L446.8,116.7 M540.4,33.9 L559.7,33.9 M540.4,38.0 L540.4,29.8 M559.7,38.0 L559.7,29.8     h0.01"
           id="path194" />
        <use
           xlink:href="#gpPt0"
           transform="translate(104.5,359.7) scale(4.10)"
           color="rgb(255,   0,   0)"
           id="use196" />
        <use
           xlink:href="#gpPt0"
           transform="translate(109.4,356.6) scale(4.10)"
           color="rgb(255,   0,   0)"
           id="use198" />
        <use
           xlink:href="#gpPt0"
           transform="translate(119.1,353.5) scale(4.10)"
           color="rgb(255,   0,   0)"
           id="use200" />
        <use
           xlink:href="#gpPt0"
           transform="translate(123.9,347.3) scale(4.10)"
           color="rgb(255,   0,   0)"
           id="use202" />
        <use
           xlink:href="#gpPt0"
           transform="translate(133.6,341.1) scale(4.10)"
           color="rgb(255,   0,   0)"
           id="use204" />
        <use
           xlink:href="#gpPt0"
           transform="translate(153.0,328.7) scale(4.10)"
           color="rgb(255,   0,   0)"
           id="use206" />
        <use
           xlink:href="#gpPt0"
           transform="translate(186.9,300.7) scale(4.10)"
           color="rgb(255,   0,   0)"
           id="use208" />
        <use
           xlink:href="#gpPt0"
           transform="translate(220.8,279.0) scale(4.10)"
           color="rgb(255,   0,   0)"
           id="use210" />
        <use
           xlink:href="#gpPt0"
           transform="translate(298.2,220.1) scale(4.10)"
           color="rgb(255,   0,   0)"
           id="use212" />
        <use
           xlink:href="#gpPt0"
           transform="translate(438.7,120.8) scale(4.10)"
           color="rgb(255,   0,   0)"
           id="use214" />
        <use
           xlink:href="#gpPt0"
           transform="translate(550.1,33.9) scale(4.10)"
           color="rgb(255,   0,   0)"
           id="use216" />
        <use
           xlink:href="#gpPt0"
           transform="translate(542.6,354.8) scale(4.10)"
           color="rgb(255,   0,   0)"
           id="use218" />
      </g>
    </g>
    <g
       id="gnuplot_plot_2">
      <title
         id="title221">gnuplot_plot_2</title>
      <g
         style="fill:none; color:red; stroke:currentColor; stroke-width:2.00; stroke-linecap:butt; stroke-linejoin:miter"
         id="g223">
        <g
           transform="translate(515.7,375.3)"
           style="stroke:none; fill:black; font-family:CMR10,CMEX10; font-size:11.00pt; text-anchor:end"
           id="g225">
          <text
             id="text227"
             style="font-style:normal;font-variant:normal;font-weight:500;font-stretch:normal;font-family:CMU Serif;-inkscape-font-specification:CMU Serif Medium">
            <tspan
               id="tspan229"
               style="font-style:normal;font-variant:normal;font-weight:500;font-stretch:normal;font-family:CMU Serif;-inkscape-font-specification:CMU Serif Medium">reta de calibração</tspan>
          </text>
        </g>
        <path
           stroke="rgb(  0,   0, 255)"
           d="M523.3,371.2 L561.9,371.2 M69.6,387.6 L71.0,386.6 L76.1,382.8 L81.3,379.0 L86.5,375.3 L91.6,371.5    L96.8,367.7 L102.0,363.9 L107.1,360.2 L112.3,356.4 L117.4,352.6 L122.6,348.9 L127.8,345.1 L132.9,341.3    L138.1,337.5 L143.3,333.8 L148.4,330.0 L153.6,326.2 L158.8,322.4 L163.9,318.7 L169.1,314.9 L174.3,311.1    L179.4,307.3 L184.6,303.6 L189.8,299.8 L194.9,296.0 L200.1,292.2 L205.2,288.5 L210.4,284.7 L215.6,280.9    L220.7,277.1 L225.9,273.4 L231.1,269.6 L236.2,265.8 L241.4,262.0 L246.6,258.3 L251.7,254.5 L256.9,250.7    L262.1,246.9 L267.2,243.2 L272.4,239.4 L277.6,235.6 L282.7,231.8 L287.9,228.1 L293.0,224.3 L298.2,220.5    L303.4,216.7 L308.5,213.0 L313.7,209.2 L318.9,205.4 L324.0,201.6 L329.2,197.9 L334.4,194.1 L339.5,190.3    L344.7,186.5 L349.9,182.8 L355.0,179.0 L360.2,175.2 L365.3,171.5 L370.5,167.7 L375.7,163.9 L380.8,160.1    L386.0,156.4 L391.2,152.6 L396.3,148.8 L401.5,145.0 L406.7,141.3 L411.8,137.5 L417.0,133.7 L422.2,129.9    L427.3,126.2 L432.5,122.4 L437.7,118.6 L442.8,114.8 L448.0,111.1 L453.1,107.3 L458.3,103.5 L463.5,99.7    L468.6,96.0 L473.8,92.2 L479.0,88.4 L484.1,84.6 L489.3,80.9 L494.5,77.1 L499.6,73.3 L504.8,69.5    L510.0,65.8 L515.1,62.0 L520.3,58.2 L525.5,54.4 L530.6,50.7 L535.8,46.9 L540.9,43.1 L546.1,39.3    L551.3,35.6 L556.4,31.8 L561.6,28.0 L566.8,24.2 L571.9,20.5 L577.1,16.7  h0.01"
           id="path231" />
      </g>
    </g>
    <g
       style="fill:none; color:white; stroke:rgb(  0,   0, 255); stroke-width:1.00; stroke-linecap:butt; stroke-linejoin:miter"
       id="g233" />
    <g
       style="fill:none; color:black; stroke:currentColor; stroke-width:1.00; stroke-linecap:butt; stroke-linejoin:miter"
       id="g235">
      <path
         stroke="black"
         d="M65.8,15.3 L65.8,387.6 L577.1,387.6 L577.1,15.3 L65.8,15.3 Z  h0.01"
         id="path237" />
    </g>
  </g>
</svg>
